<svg width="800" height="800" viewBox="0 0 800 800" fill="none" xmlns="http://www.w3.org/2000/svg">
  <!-- Professional silhouette 1 -->
  <path d="M350 200 C350 150, 300 100, 250 100 C200 100, 150 150, 150 200 C150 250, 175 300, 200 350 L200 550 L300 550 L300 350 C325 300, 350 250, 350 200 Z" fill="#4A37A5" opacity="0.8"/>
  
  <!-- Professional silhouette 2 -->
  <path d="M650 200 C650 150, 600 100, 550 100 C500 100, 450 150, 450 200 C450 250, 475 300, 500 350 L500 550 L600 550 L600 350 C625 300, 650 250, 650 200 Z" fill="#4A37A5" opacity="0.8"/>
  
  <!-- Suit outline 1 -->
  <path d="M150 350 L150 700 L350 700 L350 350 L325 375 L250 400 L175 375 Z" fill="#3A2A87" opacity="0.7"/>
  
  <!-- Suit outline 2 -->
  <path d="M450 350 L450 700 L650 700 L650 350 L625 375 L550 400 L475 375 Z" fill="#3A2A87" opacity="0.7"/>
</svg> 